<mxfile host="drawio-plugin" modified="2021-05-19T10:28:00.368Z" agent="5.0 (Windows NT 6.2; Win64; x64) AppleWebKit/537.36 (KHTML, like Gecko) Chrome/87.0.4280.141 Safari/537.36" etag="zChYEvqPqDBCeomJqjrb" version="14.6.6" type="embed"><diagram id="0keiGXlnYVucIyCgg5cK" name="Page-1"><mxGraphModel dx="1065" dy="431" grid="1" gridSize="10" guides="1" tooltips="1" connect="1" arrows="1" fold="1" page="1" pageScale="1" pageWidth="850" pageHeight="1100" math="0" shadow="0"><root><mxCell id="0"/><mxCell id="1" parent="0"/><mxCell id="2" value="FlyweightFactory" style="swimlane;fontStyle=1;align=center;verticalAlign=top;childLayout=stackLayout;horizontal=1;startSize=26;horizontalStack=0;resizeParent=1;resizeParentMax=0;resizeLast=0;collapsible=1;marginBottom=0;" parent="1" vertex="1"><mxGeometry x="190" y="90" width="170" height="90" as="geometry"/></mxCell><mxCell id="4" value="" style="line;strokeWidth=1;fillColor=none;align=left;verticalAlign=middle;spacingTop=-1;spacingLeft=3;spacingRight=3;rotatable=0;labelPosition=right;points=[];portConstraint=eastwest;" parent="2" vertex="1"><mxGeometry y="26" width="170" height="8" as="geometry"/></mxCell><mxCell id="5" value="+ get_key()&#10;+ get_flyweight()&#10;+ list_of_flyweights()" style="text;strokeColor=none;fillColor=none;align=left;verticalAlign=top;spacingLeft=4;spacingRight=4;overflow=hidden;rotatable=0;points=[[0,0.5],[1,0.5]];portConstraint=eastwest;" parent="2" vertex="1"><mxGeometry y="34" width="170" height="56" as="geometry"/></mxCell><mxCell id="6" value="Flyweight" style="swimlane;fontStyle=1;align=center;verticalAlign=top;childLayout=stackLayout;horizontal=1;startSize=26;horizontalStack=0;resizeParent=1;resizeParentMax=0;resizeLast=0;collapsible=1;marginBottom=0;" parent="1" vertex="1"><mxGeometry x="190" y="240" width="170" height="90" as="geometry"/></mxCell><mxCell id="8" value="" style="line;strokeWidth=1;fillColor=none;align=left;verticalAlign=middle;spacingTop=-1;spacingLeft=3;spacingRight=3;rotatable=0;labelPosition=right;points=[];portConstraint=eastwest;" parent="6" vertex="1"><mxGeometry y="26" width="170" height="8" as="geometry"/></mxCell><mxCell id="9" value="+ operation()" style="text;strokeColor=none;fillColor=none;align=left;verticalAlign=top;spacingLeft=4;spacingRight=4;overflow=hidden;rotatable=0;points=[[0,0.5],[1,0.5]];portConstraint=eastwest;" parent="6" vertex="1"><mxGeometry y="34" width="170" height="56" as="geometry"/></mxCell><mxCell id="10" value="«interface»&lt;br&gt;&lt;b&gt;Client&lt;/b&gt;" style="html=1;" vertex="1" parent="1"><mxGeometry x="450" y="90" width="170" height="90" as="geometry"/></mxCell><mxCell id="11" value="Context&lt;br&gt;+ add_aircraft_to_database()" style="html=1;" vertex="1" parent="1"><mxGeometry x="450" y="240" width="170" height="90" as="geometry"/></mxCell><mxCell id="12" value="" style="endArrow=open;html=1;endSize=12;startArrow=diamondThin;startSize=14;startFill=0;edgeStyle=orthogonalEdgeStyle;align=left;verticalAlign=bottom;entryX=0.5;entryY=0;entryDx=0;entryDy=0;exitX=0.504;exitY=1;exitDx=0;exitDy=0;exitPerimeter=0;" edge="1" parent="1" source="5" target="6"><mxGeometry x="-1" y="3" relative="1" as="geometry"><mxPoint x="275" y="190" as="sourcePoint"/><mxPoint x="250" y="210" as="targetPoint"/></mxGeometry></mxCell><mxCell id="13" value="" style="endArrow=open;html=1;endSize=12;startArrow=diamondThin;startSize=14;startFill=1;edgeStyle=orthogonalEdgeStyle;align=left;verticalAlign=bottom;exitX=0.5;exitY=1;exitDx=0;exitDy=0;" edge="1" parent="1" source="10" target="11"><mxGeometry y="45" relative="1" as="geometry"><mxPoint x="535" y="200" as="sourcePoint"/><mxPoint x="720" y="200" as="targetPoint"/><Array as="points"/><mxPoint as="offset"/></mxGeometry></mxCell><mxCell id="14" value="" style="endArrow=open;endFill=1;endSize=12;html=1;exitX=0;exitY=0.5;exitDx=0;exitDy=0;entryX=1;entryY=0.196;entryDx=0;entryDy=0;entryPerimeter=0;" edge="1" parent="1" source="11" target="9"><mxGeometry width="160" relative="1" as="geometry"><mxPoint x="380" y="370" as="sourcePoint"/><mxPoint x="540" y="370" as="targetPoint"/></mxGeometry></mxCell><mxCell id="16" value="" style="endArrow=open;endFill=1;endSize=12;html=1;exitX=0;exitY=0.5;exitDx=0;exitDy=0;entryX=1;entryY=0.125;entryDx=0;entryDy=0;entryPerimeter=0;" edge="1" parent="1" source="11" target="5"><mxGeometry width="160" relative="1" as="geometry"><mxPoint x="430" y="370" as="sourcePoint"/><mxPoint x="590" y="370" as="targetPoint"/><Array as="points"><mxPoint x="400" y="285"/><mxPoint x="400" y="131"/></Array></mxGeometry></mxCell></root></mxGraphModel></diagram></mxfile>